<svg id="Слой_1" xmlns="http://www.w3.org/2000/svg" width="295.942" height="80.927" viewBox="0 0 295.9423828 80.9272308"><style>.st0{fill:none}.st1{fill:#009ed9}</style><path class="st0" d="M250.338 37.42c-.002-.189-.253-.277-.744-.26-.905.028-2.563.741-4.993 2.134-2.424 1.392-5.117 3.314-8.08 5.776.236-.007.546.084.937.288.394.202.684.296.875.29.389.414.791.822 1.184 1.214 7.253-5.002 10.87-8.151 10.82-9.441zM263.138 46.679c-1.24 1.508-1.857 2.898-1.857 4.163 0 .066.011.19.034.379.027.188.04.324.04.406 0 .297.114.56.351.807.234.232.466.35.698.35 1.49 0 4.117-1.902 7.881-5.715a202.862 202.862 0 0 0 10.782-11.785c-5.776 2.246-10.167 4.647-13.15 7.21-1.956 1.28-3.545 2.673-4.78 4.185z"/><path class="st1" d="M219.753 26.855c.864-.045 1.815-.45 2.86-1.205 1.034-.75 1.896-1.774 2.59-3.062.655-.942.948-2.007.89-3.208-.088-1.435-.733-2.354-1.939-2.756-.379-.278-1.071-.388-2.063-.335-1.913.104-3.562 1.242-4.938 3.409-.64 1.54-.928 2.786-.873 3.745.05 1.036.414 1.874 1.071 2.523.66.643 1.463.944 2.402.89zM34.39 28.138c3.556-7.757 5.336-14.013 5.336-18.778 0-2.252-.284-4.07-.844-5.464C37.597 1.296 35.353 0 32.155 0 19.295.107 4.662 17.474 2.791 20.498.934 23.522 0 26.052 0 28.09c0 1.6.532 2.71 1.6 3.33 2.68 2.173 4.63 3.26 5.845 3.26.572 0 1.439-.41 2.6-1.229 1.307-.65 2.672-1.653 4.105-3.02 1.433-1.364 2.145-2.37 2.145-3.023 0-.56-.444-.84-1.333-.84-.29 0-1.754.287-4.343.854.553-1.482 1.654-3.146 3.295-5.012a56.693 56.693 0 0 1 5.563-5.431c2.069-1.76 4.001-3.257 5.811-4.501 2.36-1.436 4.194-2.152 5.504-2.152 1.422 0 2.121.776 2.121 2.336 0 1.24-.32 2.802-.976 4.69-.649 1.883-1.538 4.095-2.668 6.628-1.129 2.528-1.834 4.12-2.098 4.753-3.232 6.526-7.738 14.206-13.544 23.062-2.007 2.741-3.008 5.13-3.008 7.175 0 1.92 1.188 3.09 3.578 3.518h.519c1.335 0 2.766-.931 4.286-2.79 1.536-1.858 2.294-3.652 2.294-5.372 0-.634-.104-1.257-.31-1.865 1.71-2.187 3.945-5.838 6.7-10.96 2.758-5.112 5-9.57 6.704-13.363z"/><path class="st1" d="M294.786 43.929c-1.32 1.499-3.19 3.209-5.579 5.12-2.392 1.911-4.092 2.87-5.111 2.87-.046 0-.148-.047-.316-.144-.162-.092-.27-.14-.31-.14-.679-.457-1.014-1.177-1.014-2.156 0-.868.257-1.888.772-3.055.52-1.171 1.001-2.025 1.456-2.567.231-.36.854-1.249 1.851-2.671.994-1.425 1.686-2.467 2.04-3.132.36-.661.534-1.288.534-1.871 0-1.392-.888-2.615-2.684-3.675.045 0 .12.03.224.098.11.059.2.088.267.088.637 0 1.137-.21 1.495-.64.359-.432.541-.969.541-1.62 0-.965-.504-1.854-1.505-2.66-.999-.805-2.36-1.209-4.072-1.209-1.476 0-2.82.158-4.04.468-2.192.53-4.508 1.39-6.99 2.58a43.727 43.727 0 0 0-7.096 4.306c-2.272 1.68-4.235 3.553-5.898 5.623-1.663 2.063-2.778 4.208-3.343 6.425-.067.526-.115.942-.157 1.299a56.4 56.4 0 0 1-2.824 2.417c-2.301 1.82-4.426 2.765-6.378 2.828-1.82.058-3.375-.975-4.667-3.102.72-.498 1.98-1.272 3.794-2.333 1.81-1.053 3.368-2.048 4.67-2.983 1.296-.925 2.37-1.896 3.226-2.913.75-.801 1.497-1.993 2.252-3.572.76-1.578 1.117-3.076 1.067-4.48-.073-2.436-1.328-4.133-3.762-5.098l-.73.026c-.988.03-2.068.37-3.205 1.01-1.14.634-2.436 1.51-3.883 2.61-1.45 1.105-2.311 1.746-2.579 1.913-5.625 5.144-10.654 9.911-15.084 14.304l-.043-1.255c1.098-1.607 2.711-3.695 4.842-6.26 2.129-2.566 5.118-6.13 8.998-10.702 3.866-4.567 6.95-8.254 9.237-11.06 2.29-2.803 3.936-4.956 4.944-6.466 1.776-2.887 2.634-5.08 2.59-6.58-.022-.514-.17-.934-.456-1.27a1.294 1.294 0 0 0-1.078-.482c-1.048.033-2.47.682-4.288 1.944-10.897 8.34-20.213 19.834-27.951 34.493-.706 1.307-1.182 2.839-1.463 4.552-1.45 1.452-2.93 2.662-4.444 3.604-2.195 1.364-4.105 2.085-5.73 2.174-1.108.068-2.04-.235-2.799-.902-.753-.664-1.165-1.582-1.233-2.75 0-.07.017-.28.059-.61.038-.332.064-.556.06-.677.75-.432 2.014-1.592 3.775-3.471a45.018 45.018 0 0 0 4.772-5.996c1.397-2.122 2.063-3.84 1.986-5.16-.056-1.064-.472-1.746-1.254-2.044a5.67 5.67 0 0 0-2.706-.51c-1.044.06-1.906.332-2.58.813-.668.479-1.826 1.436-3.498 2.863-3.129 3.034-5.452 6.981-6.985 11.844a18.36 18.36 0 0 0-.604 3.324l.118-.093c-.045.042-.077.081-.12.123l.002-.03c-.992.808-2.27 1.742-3.917 2.829-2.758 1.81-4.66 2.699-5.746 2.67a.614.614 0 0 1-.275-.099c-.544-.393-.805-.908-.792-1.549.026-.9.49-2.012 1.389-3.336.888-1.326 2.012-2.802 3.369-4.441 1.361-1.637 2.116-2.592 2.264-2.866.885-1.446 1.348-2.657 1.37-3.635.026-.843-.425-2.578-1.335-5.216-.237-.31-.609-.477-1.125-.487-.359-.01-.737.093-1.116.313-.392.223-.842.54-1.37.939-.513.4-.846.638-.996.722L177.993 47.12c2.8-4.275 4.86-7.959 6.198-11.054 1.044-1.464 1.595-3.118 1.647-4.977.023-.8-.14-1.486-.48-2.05-.342-.568-.828-.86-1.466-.878-1.59-.043-3.554.92-5.892 2.885a97.268 97.268 0 0 0-8.284 7.527 224.01 224.01 0 0 0-8.103 8.719c-1.172 1.34-1.959 2.006-2.373 1.995l-.056-.267c.013-.464.586-1.575 1.726-3.338 1.14-1.752 2.519-3.547 4.134-5.369 2.418-3.035 3.656-5.265 3.694-6.69.029-.802-.305-1.475-.989-2.016-.685-.543-1.749-.838-3.19-.878-.945-.029-2.43 1.248-4.445 3.825-2.013 2.579-3.417 4.63-4.21 6.159-1.305 2.611-2.148 5.055-2.576 7.343.081-.07.136.144.168.509-.132-.148-.205-.314-.168-.51a36.465 36.465 0 0 1-1.954 1.564c-2.536 1.877-4.425 2.816-5.667 2.816-1.55 0-2.327-.696-2.327-2.091 0-.991.353-2.228 1.073-3.698.708-1.467 1.33-2.485 1.843-3.052.346-.29 1.064-.91 2.143-1.86 1.083-.948 1.922-1.758 2.506-2.434a8.052 8.052 0 0 0 1.41-2.288c.36-.848.54-1.797.54-2.835 0-1.135-.065-1.913-.196-2.34-.351-1.578-1.91-2.367-4.665-2.367a19.96 19.96 0 0 0-3.289.288c-1.147.193-2.493.46-4.053.8-1.554.339-2.58.55-3.082.627.977-1.25 1.46-2.233 1.46-2.943 0-.687-.573-1.034-1.743-1.034-1.139 0-1.895.182-2.236.549-1.758 1.351-3.492 3.23-5.2 5.651-1.002 1.422-1.676 2.707-2.09 3.886-3.123-7.772-10.717-13.269-19.61-13.269-11.665 0-21.135 9.466-21.135 21.138 0 .893.073 1.767.18 2.631l-3.016 1.964c-.798-1.838-1.564-3.294-2.307-4.368-.73-1.075-1.69-1.578-2.87-1.503a962.152 962.152 0 0 0 8.362-12.324 242.548 242.548 0 0 0 7.139-11.398c2.286-3.908 3.587-6.71 3.901-8.416-.101-1.727-.587-3.26-1.442-4.59-.855-1.335-1.819-1.976-2.899-1.909-1.47.08-2.82 1.213-4.06 3.387a74.78 74.78 0 0 0-3.786 6.513c-1.24 2.397-2.779 5.504-4.612 9.335-1.836 3.83-3.355 6.926-4.577 9.286-1.216 2.363-2.23 4.022-3.034 4.98-.407.444-1.54 1.29-3.405 2.544-1.881 1.253-3.352 2.441-4.43 3.566-.918.954-1.391 1.98-1.47 3.07-.194.157-.377.31-.584.474-2.746 2.15-4.624 3.234-5.664 3.234-.516 0-.766-.341-.766-1.019a.507.507 0 0 0-.09-.226c-.067-.09-.093-.165-.093-.222 0-1.357.514-2.763 1.526-4.226 1.011-1.467 2.462-3.3 4.37-5.507 1.904-2.195 3.123-3.755 3.666-4.673.23-.392.337-.889.337-1.49 0-1.245-.35-2.634-1.057-4.17-.706-1.53-1.306-2.3-1.802-2.3-1.058.271-3.064 1.428-6.009 3.45-2.937 2.032-4.95 3.534-6.045 4.51-1.816 1.595-3.258 2.935-4.325 4.027-1.06 1.088-2.445 2.58-4.14 4.474-1.705 1.893-2.62 2.909-2.735 3.039-1.024.981-1.656 1.467-1.913 1.467a1.59 1.59 0 0 1-.214-.12c-.08-.055-.127-.101-.127-.148 0-.646.748-1.93 2.254-3.872 1.214-1.47 2.429-2.945 3.654-4.421a44.248 44.248 0 0 0 3.203-4.347c.914-1.416 1.376-2.583 1.376-3.5 0-1.47-1.035-2.203-3.11-2.203-1.422 0-2.548.201-3.37.607a6.236 6.236 0 0 0-2.149 1.735c-.607.747-1.754 2.299-3.432 4.656-3.745 5.748-5.621 10.7-5.621 14.858.334 5.278 1.595 7.923 3.797 7.923 1.22 0 2.668-.892 4.34-2.68.393-.406 1.509-1.735 3.358-4.001 1.845-2.267 3.248-3.962 4.211-5.076.966-1.12 2.135-2.329 3.504-3.628 1.366-1.297 2.534-2.166 3.502-2.6-4.391 6.18-6.586 10.778-6.586 13.813 0 .07.024.213.09.42.056.215.09.352.09.408.57 3.33 2.015 4.99 4.343 4.99 2.44 0 5.44-1.566 8.99-4.708 1.595-1.419 4.483-4.248 5.047-4.8.414.454.89.92 1.447 1.399-3.717 6.838-5.42 12.893-5.1 18.174.175 2.744.856 4.994 2.064 6.743 1.205 1.749 2.343 2.594 3.405 2.53l.502-.029c2.222-.125 4.768-1.417 7.643-3.875 2.867-2.46 5.274-5.47 7.246-9.037 1.96-3.57 2.848-6.922 2.654-10.074-.052-.882-.241-2.008-.566-3.382.508-.217 1.039-.489 1.592-.8.431-.31.772-.62 1.058-.927 3.066 7.896 10.72 13.5 19.69 13.5 11.677 0 21.139-9.46 21.139-21.138 0-1.337-.14-2.643-.377-3.911 1.817 1.047 4.55 1.832 4.943.998 1.6-.562 4.5-1.214 8.711-1.958-1.792 1.958-3.503 4.309-5.127 7.05-1.638 2.741-2.458 5.157-2.458 7.256 0 .077.019.2.037.364.02.172.032.266.032.282.364 2.034 1.035 3.566 2.002 4.594.97 1.038 2.148 1.549 3.537 1.549 1.346 0 2.904-.502 4.665-1.52 1.77-1.01 3.718-2.558 5.855-4.648a55.36 55.36 0 0 0 1.992-2.074c-.018-.147.048-.316.167-.499-.049.247-.104.431-.167.5.186 1.493.557 3.144 1.155 4.986.464 1.21 1.17 1.83 2.11 1.855 1.034.029 2.225-.692 3.573-2.166 1.357-1.474 3.156-3.714 5.41-6.72 2.25-3.006 3.908-5.055 4.975-6.155 1.758-1.862 2.979-2.784 3.66-2.764.196.008.306.036.306.095-.017.363-.395 1.276-1.146 2.738-.728.996-1.504 2.26-2.324 3.794a685.363 685.363 0 0 0-2.39 4.463c-.675 1.435-1.035 2.761-1.068 3.985-.025 1.017.186 1.867.654 2.564.453.695 1.079 1.059 1.86 1.078.984.027 2.249-.504 3.808-1.595 1.557-1.09 3.261-2.791 5.118-5.11.624-.922 2.135-2.483 4.561-4.675 2.412-2.19 3.862-3.557 4.346-4.092-.649 1.167-1.33 2.432-2.07 3.785a35.77 35.77 0 0 0-1.905 4.104c-.534 1.391-.812 2.64-.842 3.76-.068 2.41 1 4.106 3.22 5.078l.513.014c2.58.072 7.762-3.355 15.434-10.152l-.019-.116c.032.05.047.09.019.116.325 1.73.926 3.3 1.816 4.695 1.237 1.936 2.977 2.923 5.217 2.97l.453-.029c2.284-.127 4.956-1.55 8.025-4.26 1.887-1.672 3.6-3.432 5.237-5.23.125 2.02.487 3.861 1.102 5.514.692 1.856 1.444 2.77 2.253 2.747.689-.028 1.306-.463 1.853-1.323a70.58 70.58 0 0 1 1.704-2.6 42.356 42.356 0 0 0 1.63-2.517c.427-.705.814-1.458 1.178-2.268a798.681 798.681 0 0 0 3.986 5.6c1.12 1.562 2.207 2.767 3.26 3.609a5.236 5.236 0 0 0 3.578 1.206c2.841-.094 7.181-2.845 12.935-8.114.17.544.362 1.09.606 1.638.788 1.776 1.76 3.244 2.922 4.41 1.155 1.165 2.252 1.748 3.3 1.748.632 0 1.225-.228 1.817-.677l11.83-11.07c-1.377 4.17-2.054 7.287-2.054 9.356 0 3.006 1.085 4.509 3.276 4.509 1.437 0 3.218-.656 5.323-1.967 2.107-1.313 4.304-3.086 6.563-5.344a48.985 48.985 0 0 0 6.032-7.258l-1.156-3.431zM78.732 69.014c-1.06 2.705-2.918 4.136-5.559 4.286-.558-.482-1.054-1.318-1.503-2.513a13.778 13.778 0 0 1-.778-3.865c-.108-1.75.073-3.63.55-5.633.48-1.998 1.2-3.807 2.17-5.418.885.785 1.946 1.143 3.184 1.071.335-.02.81-.125 1.424-.318a24.14 24.14 0 0 1 1.587-.436l.18 3.142c.236 3.747-.18 6.974-1.255 9.684zm14.85-24.96c.968 2.847 1.165 1.117 1.339 2.33.177 1.218-3.968-3.055-4.598-5.866a39.734 39.734 0 0 1-.132-.634c2.269-7.215 9.05-12.531 17.17-12.873 1.185.387 1.937.739 1.937.739.08 1.068-.179 1.348-.95 1.926-.596.434-1.841 1.31-1.487-.304-1.018.145-1.885-.553-2.879-.013-1.014.546-1.042 1.369-.993 2.399.71.06 1.381.101 2.12.148.048.362.214 1.176-.049 1.46-.476.51-1.046-.049-1.52.128-.764.282-1.336.785-2.086 1.131-.74.34-1.635.494-2.306 1.026-.771.61-1.393 1.676-2.127 2.447-.96.995-1.258.838-2.586.81-1.117-.03-.025.286-1.446 1.952-.683.805-.363.345.593 3.194zm15.117 9.651c-2.202-.052-2.047 2.032-2.11 1.759-.188.165-.46 1.5-.93 1.942-.74.684-1.44.986-2.053 1.877-.657.957-2.195 1.736-2.298 1.146.834-2.62-.17-1.452-.527-2.099-.5-.934-1.722-1.152-2.172-2.023-.459-.904-.046-2.64-.101-3.698-.088-1.487-.466-2.16-1.264-3.227-1.063-1.4-1.976-3.421-1.583-5.229.114-.507.24.785.487-1.4.255-2.186 3.395-1.491 5.233-.052 1.515 1.185 3.108 3.341 5.068 3.603.455.062 1.103-.158 1.517.027.41.176.718.742 1.09 1.017.913.646 2.052.239 2.474 1.363.531 1.438-2.066 4.673-2.83 4.994zm14.592-19.394a2.859 2.859 0 0 1-.782-.333c-.71-.44-.89-.777-1.913-.78-.179-.008.226-.217-.77-.306-1.696 1.277-2.203-1.682-2.123-2.085.048-.264.136-.795 0-1.044-.213-.392-.977-.745-1.475-1.035a18.785 18.785 0 0 1 7.063 5.583zm-.645 22.487c.618-2.286.803-3.522 1.318-4.367 1-1.631-1.298-2.877-.977-4.667-.293-.043-.6-.097-.892-.099-.758-.005-1.178.461-1.88.404-1.11-.083-1.286-.724-1.578-1.628-.377-1.123-1.214-1.35-1.8-2.255-.37-.566-.328-2.521-.014-3.171.38-.777 1.296-.76 1.736-1.49.518-.847.98-1.448 1.71-2.174.327-.311.257-.65.89-.764.27-.05.813-.007 1.077.088.273.102 1.761.865 1.396.226-.213-.364.56-.264 1.256-.117a17.476 17.476 0 0 1 2.128 8.378c0 4.424-1.646 8.485-4.37 11.636zm116.871-9.936a52.02 52.02 0 0 1-1.184-1.215c-.191.007-.48-.087-.875-.289-.39-.204-.701-.295-.937-.288 2.963-2.462 5.656-4.384 8.08-5.776 2.43-1.393 4.088-2.106 4.993-2.135.49-.016.742.072.744.262.05 1.29-3.568 4.44-10.82 9.441zm30.768.207c-3.764 3.813-6.39 5.715-7.88 5.715-.233 0-.465-.118-.699-.35-.237-.246-.352-.51-.352-.807a3.32 3.32 0 0 0-.039-.406 3.705 3.705 0 0 1-.034-.38c0-1.264.616-2.654 1.857-4.162 1.234-1.512 2.823-2.906 4.78-4.185 2.982-2.563 7.373-4.964 13.15-7.21a202.862 202.862 0 0 1-10.783 11.785z"/></svg>